<svg xmlns="http://www.w3.org/2000/svg" width="16" height="16" viewBox="0 0 183 183"><path fill="#FFF" fill-rule="evenodd" d="M91.594 0C66.72 0 63.599.11 53.83.556c-9.75.45-16.406 2.002-22.229 4.28-6.024 2.352-11.133 5.498-16.224 10.62-5.095 5.119-8.224 10.257-10.57 16.313C2.535 37.627.99 44.32.55 54.122.114 63.946 0 67.087 0 92.1c0 25.012.11 28.142.553 37.966.449 9.804 1.992 16.497 4.255 22.353 2.341 6.058 5.47 11.196 10.563 16.315 5.089 5.123 10.199 8.278 16.219 10.63 5.827 2.277 12.484 3.83 22.232 4.279 9.77.447 12.889.556 37.76.556 24.875 0 27.987-.11 37.757-.556 9.75-.45 16.413-2.002 22.24-4.28 6.021-2.351 11.124-5.506 16.212-10.629 5.095-5.12 8.224-10.257 10.57-16.313 2.252-5.858 3.798-12.552 4.256-22.353.439-9.824.553-12.956.553-37.968 0-25.013-.114-28.152-.553-37.976-.458-9.805-2.004-16.497-4.255-22.353-2.347-6.058-5.476-11.196-10.57-16.316-5.095-5.123-10.19-8.27-16.22-10.62-5.838-2.277-12.497-3.83-22.247-4.279C119.556.11 116.445 0 91.565 0zm-8.216 16.597c2.438-.004 5.159 0 8.216 0 24.453 0 27.351.088 37.008.53 8.93.41 13.776 1.91 17.005 3.171 4.274 1.67 7.32 3.665 10.524 6.889 3.206 3.223 5.19 6.293 6.854 10.591 1.254 3.243 2.748 8.116 3.154 17.096.439 9.709.534 12.625.534 37.204 0 24.58-.095 27.496-.534 37.205-.408 8.98-1.9 13.853-3.154 17.096-1.66 4.298-3.648 7.358-6.854 10.58-3.205 3.223-6.249 5.219-10.524 6.888-3.225 1.266-8.075 2.763-17.005 3.174-9.655.441-12.555.537-37.008.537-24.456 0-27.354-.096-37.009-.537-8.93-.415-13.776-1.915-17.006-3.176-4.274-1.67-7.327-3.665-10.533-6.888-3.205-3.224-5.19-6.286-6.853-10.586-1.254-3.242-2.748-8.116-3.154-17.096-.439-9.709-.527-12.625-.527-37.22 0-24.594.088-27.495.527-37.204.408-8.98 1.9-13.853 3.154-17.1 1.66-4.298 3.648-7.368 6.853-10.591 3.206-3.224 6.259-5.22 10.533-6.892 3.228-1.267 8.077-2.763 17.006-3.176 8.45-.384 11.723-.499 28.793-.518zm57.104 15.292c-6.068 0-10.99 4.945-10.99 11.049 0 6.101 4.922 11.052 10.99 11.052 6.067 0 10.99-4.95 10.99-11.052 0-6.102-4.923-11.052-10.99-11.052zM91.594 44.803C65.619 44.803 44.56 65.98 44.56 92.1c0 26.12 21.06 47.287 47.034 47.287s47.025-21.168 47.025-47.287c0-26.12-21.053-47.297-47.027-47.297zm0 16.597c16.86 0 30.528 13.744 30.528 30.7 0 16.954-13.669 30.7-30.528 30.7-16.862 0-30.529-13.746-30.529-30.7 0-16.956 13.667-30.7 30.529-30.7z"></path></svg>