<svg xmlns="http://www.w3.org/2000/svg" width="16" height="17" viewBox="0 0 19 17"><g fill="none" fill-rule="evenodd"><path fill="#FFF" d="M16.972.181L.712 6.75s-.77.27-.709.771c.061.5.69.73.69.73l4.089 1.417 2.43 1.21 6.682 5.275c1.113.5 1.519-.542 1.519-.542L18.308.577c0-.453-.274-.577-.574-.577-.362 0-.762.181-.762.181z" transform="translate(.444 .222)"></path><path fill="#D2E5F1" d="M14.604 3.269L4.667 9.694s1.25 4.172 1.496 4.965c.246.793.443.811.443.811l.54-4.691s7.499-6.864 7.806-7.156c.307-.292.205-.354.205-.354.007-.119-.052-.158-.134-.158-.164 0-.42.158-.42.158z" transform="translate(.444 .222)"></path><path fill="#B5D0E4" d="M6.667 15.557c.221.102.424-.061.424-.061l2.592-2.513-2.52-2.094-.496 4.668z" transform="translate(.444 .222)"></path></g></svg>