<svg xmlns="http://www.w3.org/2000/svg" width="43.654" height="43.654" viewBox="0 0 43.654 43.654">
    <defs>
        <clipPath id="cs1hsddhba">
            <path data-name="Rectángulo 349" style="fill:none" d="M0 0h20.899v22.206H0z"/>
        </clipPath>
    </defs>
    <path data-name="Trazado 3" d="M43.654 21.827a21.827 21.827 0 1 0-21.827 21.827 21.827 21.827 0 0 0 21.827-21.827" style="fill:#ffffff"/>
    <g data-name="Grupo 196">
        <g data-name="Grupo 195" style="clip-path:url(#cs1hsddhba)" transform="translate(12 11)">
            <path data-name="Trazado 318" d="M87.525 7h-3.856V.088h5.311a1.693 1.693 0 0 1 1.673 1.687V3.87A3.131 3.131 0 0 1 87.525 7" transform="translate(-69.757 -.074)" style="fill:#2994ff"/>
            <path data-name="Trazado 319" d="M.037 83.245v8.365s1.254-1.119 1.433-1.29a2.17 2.17 0 0 1 1.468-.62l.933-.035a3.069 3.069 0 0 0 3.079-3.128v-3.292z" transform="translate(-.028 -69.404)" style="fill:#e2189d"/>
            <path data-name="Trazado 320" d="M6.989 41.591H.035v8.981s1.269-1.109 1.439-1.29a2.991 2.991 0 0 1 1.991-.7h3.524z" transform="translate(-.029 -34.676)" style="fill:#955bff"/>
            <path data-name="Trazado 321" d="M45.2 48.578h-3.554v-6.987h6.987v3.551a3.436 3.436 0 0 1-3.433 3.436" transform="translate(-34.721 -34.676)" style="fill:#3fc545"/>
            <path data-name="Trazado 322" d="M46.741.085h-5.1V7h6.987V3.481a3.042 3.042 0 0 1 .737-1.957c.181-.169 1.29-1.439 1.29-1.439z" transform="translate(-34.721 -.071)" style="fill:#ff7028"/>
            <path data-name="Trazado 323" d="M3.7 0h-.78A2.919 2.919 0 0 0 .007 2.9L0 2.894s.005 5.36.006 5.357v.663S1.275 7.8 1.445 7.623a2.754 2.754 0 0 1 1.765-.694h3.713V3.39a2.961 2.961 0 0 1 .727-1.937c.181-.169 1.287-1.44 1.287-1.44z" style="fill:#5d22e9"/>
        </g>
    </g>
</svg>
