<svg xmlns="http://www.w3.org/2000/svg" width="16" height="16" viewBox="0 0 16 16"><path fill="#FFF" fill-rule="evenodd" d="M8 0C3.493 0 0 3.301 0 7.76c0 2.333.956 4.348 2.513 5.74.13.118.209.28.215.456l.044 1.423c.014.454.483.748.898.566l1.587-.7c.135-.06.285-.07.427-.032.729.201 1.506.308 2.316.308 4.507 0 8-3.302 8-7.76C16 3.3 12.507 0 8 0zm4.803 5.97l-2.35 3.728c-.373.593-1.175.74-1.735.32L6.849 8.618c-.172-.13-.407-.128-.578.001l-2.524 1.916c-.336.256-.777-.148-.55-.506L5.547 6.3c.373-.592 1.175-.74 1.735-.32l1.869 1.402c.172.129.407.127.578-.002l2.524-1.915c.336-.256.777.148.55.505z"></path></svg>