<svg xmlns="http://www.w3.org/2000/svg" width="16" height="17" viewBox="0 0 18 17"><path fill="#FFF" d="M12.976 10.092c-.208-.104-1.227-.603-1.417-.672-.19-.069-.329-.103-.467.103-.138.207-.535.672-.656.81-.121.137-.242.155-.45.051-.207-.103-.875-.32-1.667-1.024-.617-.547-1.033-1.223-1.154-1.43-.12-.206-.012-.318.091-.42.094-.093.208-.242.311-.362.104-.12.139-.207.208-.344.069-.138.034-.259-.018-.362-.051-.103-.466-1.119-.639-1.532-.168-.403-.34-.348-.466-.354-.121-.006-.26-.008-.398-.008s-.363.052-.553.258c-.19.207-.725.706-.725 1.722s.743 1.997.846 2.135c.104.137 1.462 2.222 3.542 3.116.495.212.881.34 1.182.434.497.157.95.135 1.306.082.399-.06 1.227-.499 1.4-.981.173-.482.173-.895.12-.981-.05-.086-.19-.138-.396-.241m-3.784 5.14H9.19c-1.237 0-2.451-.33-3.51-.956l-.252-.149-2.61.682.696-2.533-.164-.26c-.69-1.093-1.055-2.356-1.054-3.653.001-3.785 3.095-6.864 6.9-6.864 1.842 0 3.574.715 4.876 2.013 1.303 1.297 2.02 3.022 2.019 4.856-.002 3.785-3.096 6.865-6.898 6.865m5.87-12.707C13.496.965 11.412.105 9.192.104 4.618.104.895 3.809.894 8.362.893 9.818 1.275 11.24 2 12.492L.824 16.77l4.4-1.149c1.211.658 2.576 1.005 3.965 1.005h.003c4.574 0 8.297-3.705 8.299-8.258 0-2.207-.862-4.282-2.429-5.843"></path></svg>